<svg xmlns="http://www.w3.org/2000/svg" width="184.206" height="1094.399" viewBox="0 0 184.206 1094.399">
  <g id="Group_19680" data-name="Group 19680" transform="translate(-232.278 471.894) rotate(-92)" opacity="0.2">
    <path id="Path_1390" data-name="Path 1390" d="M-631.414,286.86s142.721-47.356,246.038-36.183,63.017,80.876,167.23,80.876S-76.6,247.2,31.475,250.677s76.012,93.091,182.684,94.8,244-87.954,244-87.954" transform="translate(0.011 0)" fill="none" stroke="#fff" stroke-width="1"/>
    <path id="Path_1391" data-name="Path 1391" d="M-631.414,286.86s142.721-47.356,246.038-36.183,63.017,80.876,167.23,80.876S-76.6,247.2,31.475,250.677s76.012,93.091,182.684,94.8,244-87.954,244-87.954" transform="translate(0.011 8.123)" fill="none" stroke="#fff" stroke-width="1"/>
    <path id="Path_1392" data-name="Path 1392" d="M-631.414,286.86s142.721-47.356,246.038-36.183,63.017,80.876,167.23,80.876S-76.6,247.2,31.475,250.677s76.012,93.091,182.684,94.8,244-87.954,244-87.954" transform="translate(0.011 16.246)" fill="none" stroke="#fff" stroke-width="1"/>
    <path id="Path_1393" data-name="Path 1393" d="M-631.414,286.86s142.721-47.356,246.038-36.183,63.017,80.876,167.23,80.876S-76.6,247.2,31.475,250.677s76.012,93.091,182.684,94.8,244-87.954,244-87.954" transform="translate(0.011 24.368)" fill="none" stroke="#fff" stroke-width="1"/>
    <path id="Path_1394" data-name="Path 1394" d="M-631.414,286.86s142.721-47.356,246.038-36.183,63.017,80.876,167.23,80.876S-76.6,247.2,31.475,250.677s76.012,93.091,182.684,94.8,244-87.954,244-87.954" transform="translate(0.011 32.491)" fill="none" stroke="#fff" stroke-width="1"/>
    <path id="Path_1395" data-name="Path 1395" d="M-631.414,286.86s142.721-47.356,246.038-36.183,63.017,80.876,167.23,80.876S-76.6,247.2,31.475,250.677s76.012,93.091,182.684,94.8,244-87.954,244-87.954" transform="translate(0.011 40.614)" fill="none" stroke="#fff" stroke-width="1"/>
    <path id="Path_1396" data-name="Path 1396" d="M-631.414,286.86s142.721-47.356,246.038-36.183,63.017,80.876,167.23,80.876S-76.6,247.2,31.475,250.677s76.012,93.091,182.684,94.8,244-87.954,244-87.954" transform="translate(-0.036 48.676)" fill="none" stroke="#fff" stroke-width="1"/>
  </g>
</svg>
