<svg xmlns="http://www.w3.org/2000/svg" width="60.299" height="81.757" viewBox="0 0 60.299 81.757">
  <g id="Group_17882" data-name="Group 17882" transform="translate(-49.85 -26.597)">
    <g id="Group_17881" data-name="Group 17881" transform="translate(51.9 28.624)">
      <path id="Path_21920" data-name="Path 21920" d="M-19754.01-11668.092h-5.682a3.44,3.44,0,0,1-3.264-3.37c-.055.055,0-16.867,0-16.867s-8.408-1.176-4.66-9.422c.6-1.56,9.959-9.317,9.959-9.317v-6.906s-.32-2.57,1.605-2.625h3s1.5,0,1.393,1.82c.008.335,0,1.86,0,1.86l7.992-8s3.174-3.412,6.471,0c0,.235,23.408,23.163,23.408,23.163s4.85,5.511-3.182,9.259c-.369-.321,0,17.03,0,17.03s.092,3.516-3.287,3.37C-19720.41-11668.237-19754.01-11668.092-19754.01-11668.092Z" transform="translate(19768.578 11722.431)" fill="none" stroke="#676767" stroke-width="4"/>
      <g id="Group_16268" data-name="Group 16268" transform="translate(6.906 15.771)">
        <g id="Group_16267" data-name="Group 16267" transform="translate(4.445 0)">
          <path id="Path_21910" data-name="Path 21910" d="M-17015.242-10431.1c-.016,0-.332.612-.332.612h.686s-.187.961-.982.926a1.035,1.035,0,0,1-1.1-.926,1,1,0,0,1,1.1-1.039C-17015.834-10431.523-17015.316-10431.5-17015.242-10431.1Z" transform="translate(17024.674 10436.193)" fill="#fff"/>
          <path id="Path_21911" data-name="Path 21911" d="M-17015.467-10431.307c.014,0-.3.434-.3.434h.592s.078,1.271-.848,1.19a.9.9,0,0,1-.945-.839c0-.034-.064-.77.59-.9A1.376,1.376,0,0,1-17015.467-10431.307Z" transform="translate(17028.59 10434.631)" fill="#fff"/>
          <path id="Path_21912" data-name="Path 21912" d="M-17015.949-10431.533c.023-.009-.258.395-.258.395h.48s.021.738-.578.731a.7.7,0,0,1-.68-.624.593.593,0,0,1,.486-.661A.6.6,0,0,1-17015.949-10431.533Z" transform="translate(17038.643 10448.121)" fill="#fff"/>
          <path id="Path_21913" data-name="Path 21913" d="M.937.156C.955.148.706.513.706.513h.432s.021.666-.522.66A.629.629,0,0,1,0,.609a.533.533,0,0,1,.437-.6A.533.533,0,0,1,.937.156Z" transform="translate(24.913 15.064) rotate(-8)" fill="#fff"/>
          <path id="Path_21914" data-name="Path 21914" d="M-16903.078-10346.1a.949.949,0,0,1,.715-.419.428.428,0,0,1,.473.27c.012.01.1.6-.285.808C-16902.164-10345.439-16903.223-10345.4-16903.078-10346.1Z" transform="translate(16927.348 10363.549)" fill="#fff"/>
          <path id="Path_21908" data-name="Path 21908" d="M-17035.771-10438.884c.061,0-.369-4.975,1.352-7.291a5.081,5.081,0,0,1,2.629-2.129c.031-.063,1.6-.721,1.66-1.6.063,0-1.473-1.881-1.439-3.413a4.265,4.265,0,0,1-.221-2.5,3.576,3.576,0,0,1,2.4,1.015,4.416,4.416,0,0,1,3.395-1.39,4.083,4.083,0,0,1,.5-2.161,5.765,5.765,0,0,1,2.629,4.728,4.122,4.122,0,0,1-2.629,4.634,17.958,17.958,0,0,0-.326,5.581,2.064,2.064,0,0,0,.828,1.584c.027.013.781.839,0,1.14.014.014-3.535.085-3.535.085s-1.555-.156-1.539,1.183c-.016-.042-.271,1.539,1.811,1.61.029.015,8.369,0,8.369,0a2.843,2.843,0,0,0,2.469-1.877c.053-.019,1.457-3.725,1.457-3.725s3.418-.737,3.785-5.581c-.041,0,.367-4.674-2.443-7.2,0-.046-2.152-1.064-1.342.89.041.041,1.547,1.183,1.342,6.311.084-.043-.812,2.275-2.154.323-.082-.081-3.3-8.018-3.3-7.976a7.876,7.876,0,0,0-3.865-2.238,11.435,11.435,0,0,1-5.127-1.1c.158.042-4.111-1.993-5.74-5.046.082-.041-1.258-2.2.389-1.792a5.642,5.642,0,0,1,2.135,2.524c-.041.04,3.459,3.621,5.982,1.058a2.3,2.3,0,0,0,0-3.215,3.894,3.894,0,0,0-3.014-.569,10.8,10.8,0,0,1-5.693-2.687,4.407,4.407,0,0,0-3.379-.854c0,.04-1.506.285,0,.693a4.531,4.531,0,0,1,2.482,3.417c.082.081-.285,2.361,1.1,3.582a3.039,3.039,0,0,1,.816,4.232c0,.04-.408,1.464-1.51,1.424a4.814,4.814,0,0,0,.459-2.025s1.063-1.084.115-1.98c-.008-.029-2.139-.9-2.867.641.018-.014-.426,1.311,1.912,1.609a2.449,2.449,0,0,1-2.254,2.5c.014.028-4.387.321-5.312-3.327,0,0-.8-.965-1.207.426a3.8,3.8,0,0,1-.832,2.9,8.287,8.287,0,0,1,2.418,5.854c-.039,0,.576,4.744-.266,7.971-.041,0,.193,1.83-1.375,2.144.049,0-1.9.071-2.068,1.276a1.153,1.153,0,0,0,1.154,1.4c.025-.024,4.047.025,4.047.025a1.389,1.389,0,0,0,1.662-1.166c.023-.063.965-5.627.242-8.18a4.523,4.523,0,0,0-1.758-2.625c0-.022-.748-1.445.865-1.132a4.351,4.351,0,0,1,2.986,3.011,15.306,15.306,0,0,1,.627,5.8C-17036.953-10442.146-17037.373-10439.4-17035.771-10438.884Z" transform="translate(17050.162 10470.623)" fill="#fff"/>
          <path id="Path_21909" data-name="Path 21909" d="M-17064.012-10457.773c.441.018,1.1.373.188,3.842a22.256,22.256,0,0,0-1.578,5.424,2.147,2.147,0,0,1-2.6,2.216,1.924,1.924,0,0,1-1.975-1.806,10.124,10.124,0,0,1,2.482-6.6C-17067.523-10454.721-17065.117-10457.848-17064.012-10457.773Z" transform="translate(17069.986 10459.641)" fill="#fff"/>
        </g>
        <path id="Path_21919" data-name="Path 21919" d="M-2889.3,7323.142a3.834,3.834,0,0,1,.264-.375c.35-.393.71-.777,1.063-1.166a6.537,6.537,0,0,0,1.472-2.24,8.043,8.043,0,0,1,.821-1.443c.278-.459.272-.454-.211-.733a11.055,11.055,0,0,1-1.631-1.027,4.719,4.719,0,0,1-1.473-3.149c-.056-.41-.074-.827-.109-1.241l.11-.063c.667.58,1.315,1.185,2.007,1.732s1.451,1.057,2.216,1.608a5.889,5.889,0,0,1,.48-3.13,19.257,19.257,0,0,1,1.484,3.348,8.754,8.754,0,0,1,.886-.522.934.934,0,0,1,1.052.129.648.648,0,0,0,.475.1,14.033,14.033,0,0,1,1.639-.263c-.449.162-.9.31-1.345.491a2.959,2.959,0,0,0-1.69,1.829c-.087.24-.18.478-.258.72a3.064,3.064,0,0,1-2.292,2.2,4.437,4.437,0,0,0-2.167,1.472c-.118.129-.235.259-.428.472l.1-.584-2.334,1.979Z" transform="translate(2889.297 -7293.564)" fill="#fff"/>
      </g>
      <g id="Group_16903" data-name="Group 16903" transform="translate(16.879 50.291)">
        <rect id="Rectangle_19365" data-name="Rectangle 19365" width="22.484" height="5.484" transform="translate(0 0)" fill="#fff"/>
        <g id="Pethowz" transform="translate(0.353 1.806)" style="isolation: isolate">
          <g id="Group_17648" data-name="Group 17648" transform="translate(0 0)" style="isolation: isolate">
            <path id="Path_25614" data-name="Path 25614" d="M154,380.24l.231.231v.219h0l-.087.135-1.6,2.365.331-.411v.62h-.636l-.264-.263v-1.88l.45.79-.778-1.806Zm-1.125,1.648.809-1.2h-.806Z" transform="translate(-151.646 -380.24)" fill="#ff9062"/>
            <path id="Path_25615" data-name="Path 25615" d="M157.883,380.69v.868l-.444.035h1.346v.453h-.9v.864l-.444.039h1.8v.45h-1.992l-.264-.263v-1.9l.46.806-.778-1.806H159l.231.231v.219Z" transform="translate(-153.911 -380.24)" fill="#ff9062"/>
            <path id="Path_25616" data-name="Path 25616" d="M164.24,380.471v.219H163.4l0,2.708h-.636l-.263-.263v-1.9l.459.806-.585-1.356h-.514l-.193-.45h2.342Z" transform="translate(-156.171 -380.24)" fill="#ff9062"/>
            <path id="Path_25617" data-name="Path 25617" d="M169.244,383.4h-.9v-.45h-.45v.45h-.639l-.263-.263v-1.9l.46.806-.778-1.806h1.221V382.5h1l-.549-.042V380.24h.639l.263.264Z" transform="translate(-158.431 -380.24)" fill="#ff9062"/>
            <path id="Path_25618" data-name="Path 25618" d="M174.248,382.949v.45h-1.992l-.263-.263v-1.9l.46.806-.778-1.806h2.31l.263.264Zm-.9,0V380.69h-.45v2.22l-.443.039Z" transform="translate(-160.691 -380.24)" fill="#ff9062"/>
            <path id="Path_25619" data-name="Path 25619" d="M181.878,380.24c.035.049.076.109.126.177s.091.127.125.177l-1,2.805h-.9l-.691-1.937-.691,1.938h-1.462l.591-1.806-.382.829-.652-1.828.122-.177c.047-.069.089-.128.126-.177h.527l.678,1.9.678-1.9H180l.674,1.9.678-1.9Z" transform="translate(-163.067 -380.24)" fill="#ff9062"/>
            <path id="Path_25620" data-name="Path 25620" d="M187,382.949l1.327-2.214.575-.045h-2l-.193-.45H189l.263.264v.186l-1.324,2.214-.578.045Zm0,0h2.256v.45h-1.988l-.264-.263Z" transform="translate(-167.483 -380.24)" fill="#ff9062"/>
          </g>
        </g>
      </g>
    </g>
    <g id="Pethowz-2" data-name="Pethowz" transform="translate(50.255 90.431)" style="isolation: isolate">
      <g id="Group_17647" data-name="Group 17647" transform="translate(0 0)" style="isolation: isolate">
        <path id="Path_25607" data-name="Path 25607" d="M42.141,390.475H46.36a2.12,2.12,0,0,1,.933.23,3.958,3.958,0,0,1,.869.575,2.863,2.863,0,0,1,.639.793,1.8,1.8,0,0,1,.243.856v6.546a1.767,1.767,0,0,1-.243.869,2.925,2.925,0,0,1-.639.78,3.95,3.95,0,0,1-.869.575,2.122,2.122,0,0,1-.933.23H44.825V408.4H42.141Zm2.684,8.36a2.332,2.332,0,0,1-.371.665,1.16,1.16,0,0,1-.6.409.226.226,0,0,0,.256.255h1a.9.9,0,0,0,.422-.115,1.9,1.9,0,0,0,.409-.294,1.5,1.5,0,0,0,.307-.4.9.9,0,0,0,.115-.422v-5.523a.9.9,0,0,0-.115-.422,1.684,1.684,0,0,0-.69-.69.942.942,0,0,0-.448-.115h-1a.226.226,0,0,0-.256.256,1.366,1.366,0,0,1,.6.422,2.159,2.159,0,0,1,.371.652Z" transform="translate(-42.141 -390.475)" fill="#fff"/>
        <path id="Path_25608" data-name="Path 25608" d="M77.472,410.114a1.766,1.766,0,0,1-.243.869,2.915,2.915,0,0,1-.639.78,3.947,3.947,0,0,1-.869.575,2.125,2.125,0,0,1-.933.23H73.3V415.1a.9.9,0,0,0,.115.422,1.679,1.679,0,0,0,.69.69.944.944,0,0,0,.447.115H75.5a.226.226,0,0,0,.256-.256,1.357,1.357,0,0,1-.6-.422,2.141,2.141,0,0,1-.371-.652v-.9h2.685v3.938H73.3a2.122,2.122,0,0,1-.933-.23,3.946,3.946,0,0,1-.869-.575,2.918,2.918,0,0,1-.639-.78,1.767,1.767,0,0,1-.243-.869v-9.128a1.8,1.8,0,0,1,.243-.857,2.852,2.852,0,0,1,.639-.793,3.956,3.956,0,0,1,.869-.575A2.122,2.122,0,0,1,73.3,404h4.167Zm-4.167.741h.23a.947.947,0,0,0,.448-.115,1.683,1.683,0,0,0,.69-.69.9.9,0,0,0,.115-.422v-2.582a2.317,2.317,0,0,1,.371-.665,1.159,1.159,0,0,1,.6-.409.226.226,0,0,0-.256-.256h-.946a.9.9,0,0,0-.422.115,1.9,1.9,0,0,0-.409.294,1.5,1.5,0,0,0-.307.4.9.9,0,0,0-.115.422Z" transform="translate(-62.439 -400.117)" fill="#fff"/>
        <path id="Path_25609" data-name="Path 25609" d="M101.606,390.564v3.861h3.886v3.937h-2.685v-.895a2.148,2.148,0,0,1,.371-.652,1.361,1.361,0,0,1,.6-.422.226.226,0,0,0-.256-.256h-1.918v9.383a.9.9,0,0,0,.115.422,1.5,1.5,0,0,0,.307.4,1.9,1.9,0,0,0,.409.294.9.9,0,0,0,.422.115h.665a.226.226,0,0,0,.256-.256,1.157,1.157,0,0,1-.6-.409,2.317,2.317,0,0,1-.371-.664v-.9h2.659v3.938h-3.861a2.12,2.12,0,0,1-.933-.23,3.933,3.933,0,0,1-.869-.575,2.906,2.906,0,0,1-.639-.78,1.765,1.765,0,0,1-.243-.869V390.564Z" transform="translate(-82.61 -390.538)" fill="#fff"/>
        <path id="Path_25610" data-name="Path 25610" d="M128.928,397.455V408.4h-2.684V390.475h2.684v3.886h1.534a2.121,2.121,0,0,1,.933.23,3.97,3.97,0,0,1,.869.575,2.862,2.862,0,0,1,.639.793,1.8,1.8,0,0,1,.243.857V408.4h-2.684V397.353a.9.9,0,0,0-.115-.422,1.509,1.509,0,0,0-.307-.4,1.915,1.915,0,0,0-.409-.294.9.9,0,0,0-.422-.115h-1a.226.226,0,0,0-.256.256,1.162,1.162,0,0,1,.6.409A2.335,2.335,0,0,1,128.928,397.455Z" transform="translate(-102.083 -390.475)" fill="#fff"/>
        <path id="Path_25611" data-name="Path 25611" d="M154.723,406.457a1.794,1.794,0,0,1,.243-.857,2.847,2.847,0,0,1,.639-.793,3.95,3.95,0,0,1,.869-.575,2.122,2.122,0,0,1,.933-.23h1.534a2.121,2.121,0,0,1,.933.23,3.969,3.969,0,0,1,.869.575,2.862,2.862,0,0,1,.639.793,1.8,1.8,0,0,1,.243.857v9.128a1.77,1.77,0,0,1-.243.869,2.929,2.929,0,0,1-.639.78,3.959,3.959,0,0,1-.869.575,2.121,2.121,0,0,1-.933.23h-1.534a2.121,2.121,0,0,1-.933-.23,3.94,3.94,0,0,1-.869-.575,2.913,2.913,0,0,1-.639-.78,1.764,1.764,0,0,1-.243-.869Zm2.684,8.642a1.3,1.3,0,0,0,.767,1.074,1.235,1.235,0,0,0,.537-.46,1.1,1.1,0,0,0,.23-.614v-8.156a1.1,1.1,0,0,0-.23-.614,1.244,1.244,0,0,0-.537-.46,1.067,1.067,0,0,0-.562.46,1.188,1.188,0,0,0-.2.614Z" transform="translate(-122.381 -400.117)" fill="#fff"/>
        <path id="Path_25612" data-name="Path 25612" d="M191.537,415V404h2.685V418.04h-8.335a2.122,2.122,0,0,1-.933-.23,3.946,3.946,0,0,1-.869-.575,2.918,2.918,0,0,1-.639-.78,1.767,1.767,0,0,1-.243-.869V404h2.685v11.1a.9.9,0,0,0,.115.422,1.679,1.679,0,0,0,.69.69.944.944,0,0,0,.447.115h.946a.226.226,0,0,0,.256-.256,1.354,1.354,0,0,1-.6-.422,2.135,2.135,0,0,1-.371-.652V404h2.685v11.1a.9.9,0,0,0,.115.422,1.68,1.68,0,0,0,.69.69.946.946,0,0,0,.448.115h.946a.226.226,0,0,0,.256-.256,1.358,1.358,0,0,1-.6-.422A2.14,2.14,0,0,1,191.537,415Z" transform="translate(-142.679 -400.117)" fill="#fff"/>
        <path id="Path_25613" data-name="Path 25613" d="M232.581,409.423a1.77,1.77,0,0,1-.243.87,3.194,3.194,0,0,1-.614.78,3.45,3.45,0,0,1-.844.575,2.123,2.123,0,0,1-.933.23.944.944,0,0,0-.447.115,1.679,1.679,0,0,0-.69.69.9.9,0,0,0-.115.422v3.221h1.918a.226.226,0,0,0,.256-.256,1.354,1.354,0,0,1-.6-.422A2.136,2.136,0,0,1,229.9,415v-.9h2.685v3.938H226.01v-5.421a1.8,1.8,0,0,1,.243-.856,3.094,3.094,0,0,1,.614-.793,3.419,3.419,0,0,1,.844-.575,2.124,2.124,0,0,1,.933-.23.946.946,0,0,0,.448-.115,1.684,1.684,0,0,0,.69-.69.9.9,0,0,0,.115-.422v-3.221h-1.918a.226.226,0,0,0-.256.256,1.364,1.364,0,0,1,.6.422,2.154,2.154,0,0,1,.371.652v.895H226.01V404h6.571Z" transform="translate(-173.189 -400.117)" fill="#fff"/>
      </g>
    </g>
  </g>
</svg>
