<svg id="Layer_2" data-name="Layer 2" xmlns="http://www.w3.org/2000/svg" width="36" height="36" viewBox="0 0 36 36">
  <g id="book">
    <rect id="Rectangle_19572" data-name="Rectangle 19572" width="36" height="36" fill="#fff" opacity="0"/>
    <path id="Path_26243" data-name="Path 26243" d="M26.908,3H8.581A4.581,4.581,0,0,0,4,7.582V25.907a4.582,4.582,0,0,0,4.582,4.582H26.908a1.527,1.527,0,0,0,1.527-1.527V4.527A1.527,1.527,0,0,0,26.908,3ZM8.581,6.054h16.8V21.326H8.581a4.582,4.582,0,0,0-1.527.275V7.582A1.527,1.527,0,0,1,8.581,6.054Zm0,21.38a1.527,1.527,0,0,1,0-3.054h16.8v3.054Z" transform="translate(2.109 1.581)" fill="#fff"/>
  </g>
</svg>
