<svg id="Group_17910" data-name="Group 17910" xmlns="http://www.w3.org/2000/svg" width="37" height="37" viewBox="0 0 37 37">
  <path id="Path_26246" data-name="Path 26246" d="M0,0H37V37H0Z" fill="none"/>
  <path id="Path_26247" data-name="Path 26247" d="M4.708,11.5,6.691,28.36H28.959L30.941,11.5l-6.182,4.121L17.825,5.914l-6.934,9.708L4.708,11.5ZM3.643,7.085,10.117,11.4,16.57,2.367a1.542,1.542,0,0,1,2.51,0L25.533,11.4l6.475-4.317a1.542,1.542,0,0,1,2.385,1.465L31.86,30.082a1.542,1.542,0,0,1-1.531,1.361H5.321A1.542,1.542,0,0,1,3.79,30.082L1.257,8.548A1.542,1.542,0,0,1,3.642,7.085ZM17.825,22.193a3.083,3.083,0,1,1,3.083-3.083A3.083,3.083,0,0,1,17.825,22.193Z" transform="translate(0.675 0.932)" fill="#fff"/>
</svg>
