<svg xmlns="http://www.w3.org/2000/svg" width="29.794" height="26.494" viewBox="0 0 29.794 26.494">
  <path id="Path_26248" data-name="Path 26248" d="M3.9,5.205a9.013,9.013,0,0,1,12.258-.455A9.013,9.013,0,0,1,28.883,17.444l-10.768,10.8a2.773,2.773,0,0,1-3.77.141l-.153-.14L3.426,17.444A9.013,9.013,0,0,1,3.9,5.205ZM5.858,7.166a6.24,6.24,0,0,0-.2,8.611l.2.214,10.3,10.3,7.354-7.355-4.9-4.9-1.47,1.47a4.16,4.16,0,0,1-5.885-5.882L14.166,6.7a6.241,6.241,0,0,0-8.094.262l-.214.2Zm11.767,3.922a1.387,1.387,0,0,1,1.961,0l5.882,5.882.982-.979a6.24,6.24,0,0,0-8.613-9.027l-.212.2-4.412,4.412a1.387,1.387,0,0,0-.108,1.84l.108.121a1.387,1.387,0,0,0,1.84.108l.121-.108Z" transform="translate(-1.257 -2.565)" fill="#fff"/>
</svg>
