<svg id="Group_17925" data-name="Group 17925" xmlns="http://www.w3.org/2000/svg" width="73" height="73" viewBox="0 0 73 73">
  <path id="Path_26251" data-name="Path 26251" d="M0,0H73V73H0Z" fill="none"/>
  <path id="Path_26252" data-name="Path 26252" d="M23.292,51.667h9.125V33.24L20.25,22.631,8.083,33.24V51.667h9.125V39.5h6.083Zm36.5,6.083H5.042A3.042,3.042,0,0,1,2,54.708V31.856a3.042,3.042,0,0,1,1.044-2.294l11.123-9.7V6.042A3.042,3.042,0,0,1,17.208,3H59.792a3.042,3.042,0,0,1,3.042,3.042V54.708A3.042,3.042,0,0,1,59.792,57.75ZM44.583,27.333v6.083h6.083V27.333Zm0,12.167v6.083h6.083V39.5Zm0-24.333V21.25h6.083V15.167Zm-12.167,0V21.25H38.5V15.167Z" transform="translate(4.083 6.125)" fill="#fff"/>
</svg>
