<svg id="Layer_2" data-name="Layer 2" xmlns="http://www.w3.org/2000/svg" width="83" height="83" viewBox="0 0 83 83">
  <g id="book-open">
    <rect id="Rectangle_19566" data-name="Rectangle 19566" width="83" height="83" transform="translate(83 83) rotate(180)" fill="#fff" opacity="0"/>
    <path id="Path_26237" data-name="Path 26237" d="M40.517,5A4.265,4.265,0,0,0,36.8,4.205L13,10.328V59.411l26-6.673a4.3,4.3,0,0,0,3.233-4.2V8.367A4.3,4.3,0,0,0,40.517,5Z" transform="translate(31.715 9.932)" fill="#fff"/>
    <path id="Path_26238" data-name="Path 26238" d="M31.688,10.312,7.817,4.19a4.368,4.368,0,0,0-3.646.791A4.3,4.3,0,0,0,2.52,8.421V48.527a4.3,4.3,0,0,0,3.233,4.162L31.688,59.4Z" transform="translate(6.148 9.947)" fill="#fff"/>
  </g>
</svg>
