<svg id="Group_17924" data-name="Group 17924" xmlns="http://www.w3.org/2000/svg" width="72.817" height="72.817" viewBox="0 0 72.817 72.817">
  <path id="Path_26249" data-name="Path 26249" d="M0,0H72.817V72.817H0Z" fill="none"/>
  <path id="Path_26250" data-name="Path 26250" d="M40.288,26.583a3.034,3.034,0,0,0-4.29,0l-2.145,2.142a6.068,6.068,0,1,1-8.581-8.581L42.355,3.057A19.721,19.721,0,0,1,61.7,35.12l-6.4,6.478L40.288,26.58ZM7.035,8.342A19.73,19.73,0,0,1,31.335,5.5L20.98,15.854A12.136,12.136,0,0,0,37.706,33.434l.437-.416,12.874,12.87L38.143,58.762a6.068,6.068,0,0,1-8.58,0L7.032,36.231a19.721,19.721,0,0,1,0-27.889Z" transform="translate(2.556 5.214)" fill="#fff"/>
</svg>
