<svg id="Component_25_3" data-name="Component 25 – 3" xmlns="http://www.w3.org/2000/svg" width="29.022" height="26.12" viewBox="0 0 29.022 26.12">
  <path id="Path_21509" data-name="Path 21509" d="M29.571,29.12H3.451A1.451,1.451,0,0,1,2,27.669v-10.9a1.451,1.451,0,0,1,.5-1.094L7.8,11.045V4.451A1.451,1.451,0,0,1,9.256,3H29.571a1.451,1.451,0,0,1,1.451,1.451V27.669A1.451,1.451,0,0,1,29.571,29.12Zm-17.413-2.9h4.353V17.427l-5.8-5.061L4.9,17.427v8.791H9.256v-5.8h2.9Zm7.256,0H28.12V5.9H10.707V8.989a1.443,1.443,0,0,1,.953.358l7.256,6.325a1.451,1.451,0,0,1,.5,1.094Zm2.9-11.609h2.9v2.9h-2.9Zm0,5.8h2.9v2.9h-2.9Zm0-11.609h2.9v2.9h-2.9Zm-5.8,0h2.9v2.9h-2.9Z" transform="translate(-2 -3)" fill="#fff"/>
</svg>
